<?xml version="1.0" encoding="utf-8"?>
<!-- Generator: Adobe Illustrator 15.1.0, SVG Export Plug-In . SVG Version: 6.00 Build 0)  -->
<!DOCTYPE svg PUBLIC "-//W3C//DTD SVG 1.1//EN" "http://www.w3.org/Graphics/SVG/1.1/DTD/svg11.dtd">
<svg version="1.1" id="Layer_1" xmlns="http://www.w3.org/2000/svg" xmlns:xlink="http://www.w3.org/1999/xlink" x="0px" y="0px"
	 width="19.875px" height="19.5px" viewBox="0 0 19.875 19.5" enable-background="new 0 0 19.875 19.5" xml:space="preserve">
<path fill="#EEC800" d="M9.939,0.355c-5.097,0-9.229,4.132-9.229,9.229c0,5.096,4.132,9.229,9.229,9.229s9.229-4.133,9.229-9.229
	C19.168,4.487,15.036,0.355,9.939,0.355z M9.939,16.455c-3.794,0-6.87-3.076-6.87-6.872c0-3.794,3.076-6.87,6.87-6.87
	s6.87,3.076,6.87,6.87C16.81,13.379,13.733,16.455,9.939,16.455z"/>
<path fill="#EEC800" d="M13.87,11.471l-3.62-1.799V5.584c0-0.509-0.49-0.922-1-0.922c-0.509,0-1,0.413-1,0.922v4.68
	c0,0.368,0.216,0.686,0.53,0.833c0.007,0.004,0.015,0.009,0.023,0.013l4.177,2.031c0.461,0.224,1.056,0.03,1.279-0.43
	C14.484,12.25,14.334,11.694,13.87,11.471z"/>
</svg>
