<?xml version="1.0" encoding="utf-8"?>
<!-- Generator: Adobe Illustrator 15.1.0, SVG Export Plug-In . SVG Version: 6.00 Build 0)  -->
<!DOCTYPE svg PUBLIC "-//W3C//DTD SVG 1.1//EN" "http://www.w3.org/Graphics/SVG/1.1/DTD/svg11.dtd">
<svg version="1.1" id="Layer_1" xmlns="http://www.w3.org/2000/svg" xmlns:xlink="http://www.w3.org/1999/xlink" x="0px" y="0px"
	 width="26px" height="25.25px" viewBox="0 0 26 25.25" enable-background="new 0 0 26 25.25" xml:space="preserve">
<g>
	<path fill="#FFFFFF" d="M24.174,12.587C24.174,6.187,18.988,1,12.587,1C6.187,1,1,6.187,1,12.587c0,5.793,4.255,10.58,9.81,11.438
		v-8.937H8.566v-2.785h2.243v-1.401c0-2.01,1.509-3.645,3.363-3.645h2.242v2.776h-2.242c-0.265,0-0.561,0.359-0.561,0.841v1.429
		h2.803v2.785h-2.803v9.035C19.531,23.603,24.174,18.641,24.174,12.587z"/>
</g>
<g>
	<g>
		<g>
			<g>
				<linearGradient id="SVGID_1_" gradientUnits="userSpaceOnUse" x1="-192" y1="-114.8315" x2="-192" y2="-83.3125">
					<stop  offset="0" style="stop-color:#FFFFFF"/>
					<stop  offset="1" style="stop-color:#CCCCCC"/>
				</linearGradient>
				<path fill="url(#SVGID_1_)" d="M-208-88.334c0,2.936,2.4,5.334,5.334,5.334h21.333c2.934,0,5.333-2.398,5.333-5.334v-21.33
					c0-2.934-2.399-5.334-5.333-5.334h-21.333c-2.934,0-5.334,2.4-5.334,5.334V-88.334z"/>
				<g>
					<path fill="#B3B1B3" d="M-181.333-114.748c2.803,0,5.083,2.28,5.083,5.084v21.33c0,2.804-2.28,5.084-5.083,5.084h-21.333
						c-2.803,0-5.084-2.28-5.084-5.084v-21.33c0-2.804,2.281-5.084,5.084-5.084H-181.333 M-181.333-114.998h-21.333
						c-2.934,0-5.334,2.4-5.334,5.334v21.33c0,2.936,2.4,5.334,5.334,5.334h21.333c2.934,0,5.333-2.398,5.333-5.334v-21.33
						C-176-112.598-178.399-114.998-181.333-114.998L-181.333-114.998z"/>
				</g>
			</g>
			<g>
				<linearGradient id="SVGID_2_" gradientUnits="userSpaceOnUse" x1="-192" y1="-114.8335" x2="-192" y2="-83.3125">
					<stop  offset="0" style="stop-color:#DFE3E5"/>
					<stop  offset="1" style="stop-color:#BCC5CA"/>
				</linearGradient>
				<path fill="url(#SVGID_2_)" d="M-181.334-115h-21.332c-2.934,0-5.334,2.4-5.334,5.334v21.332c0,2.936,2.4,5.334,5.334,5.334
					h21.332c2.934,0,5.334-2.398,5.334-5.334v-21.332C-176-112.6-178.4-115-181.334-115z M-177-88.334
					c0,2.391-1.943,4.334-4.334,4.334h-21.332c-2.391,0-4.334-1.943-4.334-4.334v-21.332c0-2.39,1.943-4.334,4.334-4.334h21.332
					c2.391,0,4.334,1.944,4.334,4.334V-88.334z"/>
			</g>
			<g opacity="0.7">
				<linearGradient id="SVGID_3_" gradientUnits="userSpaceOnUse" x1="-192" y1="-83.875" x2="-192" y2="-100.8905">
					<stop  offset="0" style="stop-color:#FFFFFF"/>
					<stop  offset="1" style="stop-color:#000000"/>
				</linearGradient>
				<path fill="url(#SVGID_3_)" d="M-181.334-114h-21.332c-2.391,0-4.334,1.944-4.334,4.334v21.332c0,2.391,1.943,4.334,4.334,4.334
					h21.332c2.391,0,4.334-1.943,4.334-4.334v-21.332C-177-112.056-178.943-114-181.334-114z M-178-88.334
					c0,1.838-1.496,3.334-3.334,3.334h-21.332c-1.838,0-3.334-1.496-3.334-3.334v-21.332c0-1.838,1.496-3.334,3.334-3.334h21.332
					c1.838,0,3.334,1.496,3.334,3.334V-88.334z"/>
			</g>
			<g opacity="0.7">
				<linearGradient id="SVGID_4_" gradientUnits="userSpaceOnUse" x1="-192" y1="-113.9722" x2="-192" y2="-108.718">
					<stop  offset="0" style="stop-color:#FFFFFF"/>
					<stop  offset="1" style="stop-color:#000000"/>
				</linearGradient>
				<path fill="url(#SVGID_4_)" d="M-181.334-114h-21.332c-2.391,0-4.334,1.944-4.334,4.334v1c0-2.39,1.943-4.334,4.334-4.334
					h21.332c2.391,0,4.334,1.944,4.334,4.334v-1C-177-112.056-178.943-114-181.334-114z"/>
			</g>
		</g>
	</g>
	<path fill="#FFFFFF" d="M-191.858-96.545c-0.171,0-0.337,0.009-0.504,0.019c-0.11-0.315-0.178-0.661-0.178-1.038
		c0-0.371,0.065-1.025,0.173-1.026c0.056,0,0.112,0.005,0.168,0.005c2.824,0,5.113-2.292,5.113-5.117
		c0-0.674-0.309-1.547-0.668-1.906l1.754-0.981V-110l-3.659,2.043c-0.812-0.542-1.64-0.86-2.689-0.86
		c-2.824,0-5.039,2.289-5.039,5.113c0,1.589,0.763,3.009,1.899,3.946c-0.316,0.665-0.479,1.404-0.479,2.189
		c0,0.705,0.157,1.375,0.415,1.984c-1.486,0.871-2.447,2.252-2.447,3.811c0,2.637,2.75,4.773,6.139,4.773
		c3.391,0,6.138-2.137,6.138-4.773C-185.724-94.408-188.47-96.545-191.858-96.545z M-192.199-106.091
		c1.318,0,2.386,1.068,2.386,2.386c0,1.318-1.067,2.387-2.386,2.387s-2.387-1.068-2.387-2.387
		C-194.586-105.022-193.518-106.091-192.199-106.091z M-191.858-89.938c-1.506,0-2.728-0.821-2.728-1.836
		c0-1.014,1.222-1.835,2.728-1.835s2.728,0.821,2.728,1.835C-189.131-90.759-190.353-89.938-191.858-89.938z"/>
	<linearGradient id="SVGID_5_" gradientUnits="userSpaceOnUse" x1="-191.8618" y1="-89.5566" x2="-191.8618" y2="-113.1951">
		<stop  offset="0" style="stop-color:#666666"/>
		<stop  offset="1" style="stop-color:#000000"/>
	</linearGradient>
	<path fill="url(#SVGID_5_)" d="M-191.858-97.545c-0.171,0-0.337,0.009-0.504,0.019c-0.11-0.315-0.178-0.661-0.178-1.038
		c0-0.371,0.065-1.025,0.173-1.026c0.056,0,0.112,0.005,0.168,0.005c2.824,0,5.113-2.292,5.113-5.117
		c0-0.674-0.309-1.547-0.668-1.906l1.754-0.981V-111l-3.659,2.043c-0.812-0.542-1.64-0.86-2.689-0.86
		c-2.824,0-5.039,2.289-5.039,5.113c0,1.589,0.763,3.009,1.899,3.946c-0.316,0.665-0.479,1.404-0.479,2.189
		c0,0.705,0.157,1.375,0.415,1.984c-1.486,0.871-2.447,2.252-2.447,3.811c0,2.637,2.75,4.773,6.139,4.773
		c3.391,0,6.138-2.137,6.138-4.773C-185.724-95.408-188.47-97.545-191.858-97.545z M-192.199-107.091
		c1.318,0,2.386,1.068,2.386,2.386c0,1.318-1.067,2.387-2.386,2.387s-2.387-1.068-2.387-2.387
		C-194.586-106.022-193.518-107.091-192.199-107.091z M-191.858-90.938c-1.506,0-2.728-0.821-2.728-1.836
		c0-1.014,1.222-1.835,2.728-1.835s2.728,0.821,2.728,1.835C-189.131-91.759-190.353-90.938-191.858-90.938z"/>
</g>
<g>
	<path fill="#FFFFFF" d="M-36.52-18.517c-0.486-0.064-0.978-0.108-1.48-0.108c-0.793,0-1.565,0.084-2.311,0.24
		C-39.133-18.514-37.845-18.535-36.52-18.517z"/>
	<path fill="#FFFFFF" d="M-38.205-11.408c1.037-2.46-0.99-6.564-3.564-6.091c-3.584,0.659-1.729,6.788,0.667,7.354
		C-39.928-9.868-38.605-10.459-38.205-11.408z"/>
	<path fill="#FFFFFF" d="M-34.777-18.151c-0.66,0.453-1.418,0.807-2.684,0.652c1.021,1.01,2.183,2.563,1.632,4.679
		c-0.159,0.614-0.673,1.335-1.112,1.784c-0.681,0.691-1.822,1.174-1.784,2.154c0.047,1.194,2.326,2.104,3.12,3.12
		c1.094,1.399,0.803,3.875-0.297,5.124c-2.219,2.521-9.106,3.223-11.068,0c-0.395-0.648-0.424-1.38-0.372-1.93
		c0.284-2.982,3.607-3.754,6.909-4.013c-0.309-0.543-1.147-1.875-0.446-2.822c-3.271,0.309-5.554-1.758-5.126-4.754
		c0.088-0.614,0.268-1.14,0.517-1.596c-2.304,2.06-3.761,5.045-3.761,8.377c0,6.213,5.037,11.25,11.25,11.25
		s11.25-5.037,11.25-11.25C-26.75-12.467-30.137-16.764-34.777-18.151z"/>
	<path fill="#FFFFFF" d="M-45.039-3.534c-1.22,4.186,6.852,5.33,8.245,2.302c0.709-1.54-0.411-2.945-1.114-3.563
		c-0.385-0.341-1.195-1.02-1.635-1.115c-0.344-0.076-0.689,0.046-1.039,0.074C-42.609-5.672-44.571-5.138-45.039-3.534z"/>
</g>
<path fill="#FFFFFF" d="M-37,3.75c-6.213,0-11.25,5.037-11.25,11.25S-43.213,26.25-37,26.25S-25.75,21.213-25.75,15
	S-30.787,3.75-37,3.75z M-36.961,18.099h3.398c0.855,0,1.51,0.662,1.51,1.527c0,0.864-0.705,1.554-1.562,1.554h-3.398
	c-2.729,0-4.936-2.377-4.936-5.312v-5.48c0-0.865,0.695-1.566,1.551-1.566s1.504,0.701,1.504,1.566v1.527h5.291
	c0.857,0,1.551,0.691,1.551,1.546c0,0.853-0.693,1.546-1.551,1.546h-5.291v0.861C-38.895,17.056-37.963,18.099-36.961,18.099z"/>
</svg>
